<svg xmlns="http://www.w3.org/2000/svg" viewBox="0 0 258.24 44.38"><defs><style>.cls-1{fill:#fff;}</style></defs><g id="Camada_2" data-name="Camada 2"><g id="Camada_1-2" data-name="Camada 1"><path class="cls-1" d="M16.37,33.25A7.89,7.89,0,0,0,19,37.74a12.19,12.19,0,0,0,4.6,2.48,1.54,1.54,0,0,1,1.09.66,2,2,0,0,1,.4,1.17,1.81,1.81,0,0,1-.56,1.33,1.78,1.78,0,0,1-1.24.55,5.15,5.15,0,0,1-1.38-.21,10.4,10.4,0,0,1-1.49-.55A14.86,14.86,0,0,1,19,42.41a14.09,14.09,0,0,1-1.21-.82,13.67,13.67,0,0,1-3-3.07,12.16,12.16,0,0,1-1.87-3.89,1.77,1.77,0,0,0-1.72-1.42,11.07,11.07,0,0,1-2.7-.58,18.21,18.21,0,0,1-2.71-1.21,2.24,2.24,0,0,0-1-.27c-.72,0-1.08.42-1.08,1.28v9.16a1.83,1.83,0,0,1-.54,1.33,1.8,1.8,0,0,1-1.31.55,1.8,1.8,0,0,1-1.31-.55A1.83,1.83,0,0,1,0,41.59V8.84A1.83,1.83,0,0,1,.54,7.51,1.8,1.8,0,0,1,1.85,7H12.54a12.91,12.91,0,0,1,5.14,1,11.54,11.54,0,0,1,3.94,2.74,12.45,12.45,0,0,1,2.55,4.17,14.88,14.88,0,0,1,.9,5.25,15.93,15.93,0,0,1-.52,4.12A12.38,12.38,0,0,1,23,27.83a11.77,11.77,0,0,1-2.62,2.84,12.29,12.29,0,0,1-3.59,1.9A.53.53,0,0,0,16.37,33.25ZM4.6,10.72A.86.86,0,0,0,4,11a.9.9,0,0,0-.27.64v8.48a11,11,0,0,0,.74,4.21,8.52,8.52,0,0,0,2,3A7.76,7.76,0,0,0,9.24,29a10.09,10.09,0,0,0,6.57,0,7.88,7.88,0,0,0,2.84-1.71,8.64,8.64,0,0,0,2-3,10.81,10.81,0,0,0,.74-4.21,10.87,10.87,0,0,0-.74-4.22,8.42,8.42,0,0,0-2-2.93,8,8,0,0,0-2.84-1.69,9.93,9.93,0,0,0-3.27-.55Z"/><path class="cls-1" d="M48.38,8.34A1.79,1.79,0,0,1,48.93,7a1.74,1.74,0,0,1,1.3-.55A1.76,1.76,0,0,1,51.54,7a1.82,1.82,0,0,1,.54,1.33V41.59a1.83,1.83,0,0,1-.54,1.33,1.8,1.8,0,0,1-1.31.55,1.78,1.78,0,0,1-1.3-.55,1.8,1.8,0,0,1-.55-1.33Z"/><path class="cls-1" d="M92.17,23.08a1.8,1.8,0,0,1,1.31.55,1.91,1.91,0,0,1,0,2.66,1.76,1.76,0,0,1-1.31.55H81.89a1.59,1.59,0,0,0-1.58,1.6v13.1a1.82,1.82,0,0,1-.54,1.33,1.84,1.84,0,0,1-2.62,0,1.82,1.82,0,0,1-.54-1.33V8.84a1.83,1.83,0,0,1,.54-1.33A1.8,1.8,0,0,1,78.46,7H95a1.78,1.78,0,0,1,1.31.55,1.91,1.91,0,0,1,0,2.66,1.78,1.78,0,0,1-1.31.55H81.89a1.52,1.52,0,0,0-1.11.48,1.56,1.56,0,0,0-.47,1.12v9.16a1.56,1.56,0,0,0,.47,1.12,1.52,1.52,0,0,0,1.11.48Z"/><path class="cls-1" d="M139.15,8.34A1.83,1.83,0,0,1,139.7,7a1.82,1.82,0,0,1,2.61,0,1.82,1.82,0,0,1,.54,1.33V31.19a14.29,14.29,0,0,1-1.1,5.82,12.26,12.26,0,0,1-2.87,4.1,11.7,11.7,0,0,1-4,2.43,13.37,13.37,0,0,1-9.11,0,11.72,11.72,0,0,1-6.9-6.53,14.46,14.46,0,0,1-1.08-5.82V8.34A1.82,1.82,0,0,1,118.32,7a1.84,1.84,0,0,1,2.62,0,1.82,1.82,0,0,1,.54,1.33V31.1a11.16,11.16,0,0,0,.74,4.26,8.39,8.39,0,0,0,2,3A7.61,7.61,0,0,0,127,40a9.79,9.79,0,0,0,3.29.55,9.93,9.93,0,0,0,3.27-.55,8,8,0,0,0,2.84-1.69,8.32,8.32,0,0,0,2-2.93,10.9,10.9,0,0,0,.74-4.22Z"/><path class="cls-1" d="M187.27,27.21a1.8,1.8,0,0,1-1.31-.55A1.91,1.91,0,0,1,186,24a1.76,1.76,0,0,1,1.31-.55H199.8a1.76,1.76,0,0,1,1.31.55,1.83,1.83,0,0,1,.54,1.33,20.59,20.59,0,0,1-1.58,8.43A17.62,17.62,0,0,1,196,39.69a16.51,16.51,0,0,1-5.8,3.5,19.23,19.23,0,0,1-13.1,0,16.57,16.57,0,0,1-5.77-3.5,17.62,17.62,0,0,1-4.12-5.93,20.48,20.48,0,0,1-1.58-8.38A20.79,20.79,0,0,1,167.13,17a17.47,17.47,0,0,1,4.11-5.91A16.59,16.59,0,0,1,177,7.6a19.78,19.78,0,0,1,6.59-1.14,1.74,1.74,0,0,1,1.3.55,1.82,1.82,0,0,1,.54,1.33,1.8,1.8,0,0,1-.54,1.32,1.74,1.74,0,0,1-1.3.55,15.61,15.61,0,0,0-5.28.92,13.38,13.38,0,0,0-4.6,2.77,13.55,13.55,0,0,0-3.25,4.72,17.22,17.22,0,0,0-1.21,6.76,17,17,0,0,0,1.24,6.8,13.66,13.66,0,0,0,3.24,4.71,13.23,13.23,0,0,0,4.58,2.78,15.6,15.6,0,0,0,5.28.91,15.42,15.42,0,0,0,4.64-.71,13.53,13.53,0,0,0,4.22-2.17A13.76,13.76,0,0,0,195.77,34a15.07,15.07,0,0,0,1.91-5.27,1.61,1.61,0,0,0,0-1,.85.85,0,0,0-.47-.37,1.83,1.83,0,0,0-.52-.09Zm1.17-22.77a8,8,0,0,0-2.25-.94,10.77,10.77,0,0,0-2.44-.29A9.4,9.4,0,0,0,179,4.44a1,1,0,0,1-.54.14,1,1,0,0,1-1.13-1.15,1.26,1.26,0,0,1,.4-.91A11.91,11.91,0,0,1,180.39.73,7.41,7.41,0,0,1,183.75,0,6.86,6.86,0,0,1,187,.75a18.62,18.62,0,0,1,2.66,1.77,1.05,1.05,0,0,1,.45.91A1,1,0,0,1,189,4.58,1.31,1.31,0,0,1,188.44,4.44Z"/><path class="cls-1" d="M240.25,44.38a19.57,19.57,0,0,1-6.56-1.14,16.45,16.45,0,0,1-5.77-3.51,17.86,17.86,0,0,1-4.13-5.9,20.51,20.51,0,0,1-1.58-8.36,20.87,20.87,0,0,1,1.56-8.39,17.68,17.68,0,0,1,4.1-5.93,16.51,16.51,0,0,1,5.8-3.5,19.74,19.74,0,0,1,6.58-1.15,19.54,19.54,0,0,1,6.56,1.15,16.48,16.48,0,0,1,5.77,3.5,17.56,17.56,0,0,1,4.11,5.93,20.87,20.87,0,0,1,1.55,8.39,20.51,20.51,0,0,1-1.57,8.36,18,18,0,0,1-4.11,5.9,16.18,16.18,0,0,1-5.77,3.51A19.58,19.58,0,0,1,240.25,44.38ZM225.91,25.47a17,17,0,0,0,1.24,6.75,13.82,13.82,0,0,0,3.25,4.72A13.12,13.12,0,0,0,235,39.71a15.44,15.44,0,0,0,10.5,0,13.12,13.12,0,0,0,4.58-2.77,13.82,13.82,0,0,0,3.25-4.72,17,17,0,0,0,1.24-6.75,17.36,17.36,0,0,0-1.22-6.78A13.32,13.32,0,0,0,250.1,14a13.08,13.08,0,0,0-4.57-2.77,15.58,15.58,0,0,0-10.55,0,13.29,13.29,0,0,0-4.6,2.77,13.11,13.11,0,0,0-3.25,4.74A17.36,17.36,0,0,0,225.91,25.47Z"/></g></g></svg>