<svg xmlns="http://www.w3.org/2000/svg" viewBox="0 0 86.84 166.07"><defs><style>.cls-1{fill:#ff7300;}</style></defs><g id="Camada_2" data-name="Camada 2"><g id="Camada_1-2" data-name="Camada 1"><path class="cls-1" d="M21.69,148.94a1.76,1.76,0,0,1-1.31-.55,1.91,1.91,0,0,1,0-2.66,1.8,1.8,0,0,1,1.31-.55H34.23a1.78,1.78,0,0,1,1.3.55,1.83,1.83,0,0,1,.54,1.33,20.76,20.76,0,0,1-1.57,8.43,17.79,17.79,0,0,1-4.13,5.93,16.59,16.59,0,0,1-5.79,3.51,19.39,19.39,0,0,1-13.1,0,16.64,16.64,0,0,1-5.78-3.51,17.76,17.76,0,0,1-4.12-5.93,23.1,23.1,0,0,1,0-16.74,17.31,17.31,0,0,1,4.1-5.91,16.56,16.56,0,0,1,5.79-3.5A19.54,19.54,0,0,1,18,128.19a1.74,1.74,0,0,1,1.3.55,1.88,1.88,0,0,1,0,2.66A1.78,1.78,0,0,1,18,132a15.6,15.6,0,0,0-5.28.91,13.54,13.54,0,0,0-4.6,2.77,13.39,13.39,0,0,0-3.24,4.72,19.3,19.3,0,0,0,0,13.56,13.8,13.8,0,0,0,3.24,4.72,13.21,13.21,0,0,0,4.58,2.77,15.57,15.57,0,0,0,9.92.21,13.25,13.25,0,0,0,7.51-5.89,15,15,0,0,0,1.92-5.27,1.59,1.59,0,0,0,0-1,.89.89,0,0,0-.47-.37,1.83,1.83,0,0,0-.52-.09Zm1.17-22.76a7.72,7.72,0,0,0-2.25-.94,10.19,10.19,0,0,0-2.44-.3,9.31,9.31,0,0,0-4.73,1.24,1,1,0,0,1-.54.13,1,1,0,0,1-1.13-1.14,1.28,1.28,0,0,1,.4-.92,12,12,0,0,1,2.64-1.78,7.42,7.42,0,0,1,3.36-.74,6.72,6.72,0,0,1,3.29.76,17.25,17.25,0,0,1,2.66,1.76,1.08,1.08,0,0,1,.46.92,1,1,0,0,1-1.13,1.14A1.31,1.31,0,0,1,22.86,126.18Z"/><path class="cls-1" d="M68.84,166a19.33,19.33,0,0,1-6.56-1.15,16.57,16.57,0,0,1-5.77-3.5,17.63,17.63,0,0,1-4.12-5.91,20.31,20.31,0,0,1-1.58-8.36,21,21,0,0,1,1.55-8.38,17.46,17.46,0,0,1,4.11-5.93,16.5,16.5,0,0,1,5.79-3.51,19.53,19.53,0,0,1,13.15,0,16.69,16.69,0,0,1,5.77,3.51,17.44,17.44,0,0,1,4.1,5.93,20.78,20.78,0,0,1,1.56,8.38,20.48,20.48,0,0,1-1.58,8.36,17.75,17.75,0,0,1-4.11,5.91,16.21,16.21,0,0,1-5.77,3.5A19.35,19.35,0,0,1,68.84,166ZM54.51,147.11a16.86,16.86,0,0,0,1.24,6.76A13.52,13.52,0,0,0,59,158.58a13.23,13.23,0,0,0,4.58,2.78,15.63,15.63,0,0,0,10.51,0,13.19,13.19,0,0,0,4.57-2.78,13.68,13.68,0,0,0,3.25-4.71,16.86,16.86,0,0,0,1.24-6.76,17.36,17.36,0,0,0-1.22-6.78,13.61,13.61,0,0,0-3.22-4.74,13.21,13.21,0,0,0-4.58-2.77,15.58,15.58,0,0,0-10.55,0,13.09,13.09,0,0,0-7.85,7.51A17.36,17.36,0,0,0,54.51,147.11Z"/><path class="cls-1" d="M19.46,80.3a1.74,1.74,0,0,1,1.3.55,1.91,1.91,0,0,1,0,2.66,1.78,1.78,0,0,1-1.3.55H9.17a1.55,1.55,0,0,0-1.1.45,1.52,1.52,0,0,0-.47,1.15v13.1a1.83,1.83,0,0,1-.54,1.33,1.84,1.84,0,0,1-2.62,0,1.83,1.83,0,0,1-.54-1.33V66.06a1.82,1.82,0,0,1,.54-1.33,1.76,1.76,0,0,1,1.31-.55h16.5a1.76,1.76,0,0,1,1.31.55,1.82,1.82,0,0,1,.54,1.33,1.8,1.8,0,0,1-.54,1.32,1.76,1.76,0,0,1-1.31.55H9.17a1.5,1.5,0,0,0-1.1.48,1.56,1.56,0,0,0-.47,1.13V78.7a1.54,1.54,0,0,0,.47,1.12,1.5,1.5,0,0,0,1.1.48Z"/><path class="cls-1" d="M76.75,64.57a1.83,1.83,0,0,1,.54-1.33,1.84,1.84,0,0,1,2.62,0,1.83,1.83,0,0,1,.54,1.33V87.43a14.29,14.29,0,0,1-1.1,5.82,12.47,12.47,0,0,1-2.87,4.09,11.4,11.4,0,0,1-4,2.43,13.37,13.37,0,0,1-9.11,0,11.7,11.7,0,0,1-4-2.43,12,12,0,0,1-2.86-4.09,14.46,14.46,0,0,1-1.08-5.82V64.57a1.83,1.83,0,0,1,.54-1.33,1.8,1.8,0,0,1,1.31-.55,1.78,1.78,0,0,1,1.3.55,1.8,1.8,0,0,1,.55,1.33V87.34a11,11,0,0,0,.74,4.26,8.6,8.6,0,0,0,2,3,7.92,7.92,0,0,0,2.82,1.72,10.06,10.06,0,0,0,6.56,0A7.83,7.83,0,0,0,74,94.57a8.21,8.21,0,0,0,2-2.93,11,11,0,0,0,.74-4.21Z"/><path class="cls-1" d="M21.68,26.79a7.89,7.89,0,0,0,2.61,4.49,12,12,0,0,0,4.6,2.48,1.54,1.54,0,0,1,1.09.66,2,2,0,0,1,.4,1.17,1.81,1.81,0,0,1-.56,1.33,1.78,1.78,0,0,1-1.24.55,5.15,5.15,0,0,1-1.38-.21,10.4,10.4,0,0,1-1.49-.55c-.49-.23-1-.48-1.42-.75a14.09,14.09,0,0,1-1.21-.83,13.88,13.88,0,0,1-3-3.07,12.16,12.16,0,0,1-1.87-3.89,1.78,1.78,0,0,0-1.72-1.42,11.55,11.55,0,0,1-2.7-.57A18.33,18.33,0,0,1,11.08,25a2.24,2.24,0,0,0-1-.27C9.37,24.69,9,25.12,9,26v9.16a1.83,1.83,0,0,1-.54,1.33,1.84,1.84,0,0,1-2.62,0,1.83,1.83,0,0,1-.54-1.33V2.38a1.83,1.83,0,0,1,.54-1.33A1.8,1.8,0,0,1,7.16.5H17.85a12.91,12.91,0,0,1,5.14,1,11.57,11.57,0,0,1,3.94,2.75,12.26,12.26,0,0,1,2.55,4.17,14.82,14.82,0,0,1,.9,5.24,15.93,15.93,0,0,1-.52,4.12,12.38,12.38,0,0,1-1.57,3.6,11.77,11.77,0,0,1-2.62,2.84,12.06,12.06,0,0,1-3.59,1.9A.53.53,0,0,0,21.68,26.79ZM9.91,4.26a.86.86,0,0,0-.63.27A.91.91,0,0,0,9,5.18v8.47a11,11,0,0,0,.74,4.21,8.52,8.52,0,0,0,2,3,7.79,7.79,0,0,0,2.81,1.72,10.26,10.26,0,0,0,6.57,0A7.91,7.91,0,0,0,24,20.82a8.64,8.64,0,0,0,2-3,10.81,10.81,0,0,0,.74-4.21,10.81,10.81,0,0,0-.74-4.21A8.37,8.37,0,0,0,24,6.5a8.13,8.13,0,0,0-2.84-1.69,9.93,9.93,0,0,0-3.27-.55Z"/><path class="cls-1" d="M67.85,1.88A1.83,1.83,0,0,1,68.39.55,1.84,1.84,0,0,1,71,.55a1.83,1.83,0,0,1,.54,1.33V35.13A1.83,1.83,0,0,1,71,36.46a1.84,1.84,0,0,1-2.62,0,1.83,1.83,0,0,1-.54-1.33Z"/></g></g></svg>