<svg xmlns="http://www.w3.org/2000/svg" viewBox="0 0 415.01 338.43"><defs><style>.cls-1{fill:#ff5e1f;}.cls-2{fill:#201f1c;}.cls-3{fill:#ccc5ba;}.cls-4{fill:#3f3c37;}.cls-5{fill:#7fd6e6;opacity:0.37;isolation:isolate;}.cls-6{fill:#fff;}.cls-7{fill:#d7d7d7;}</style></defs><g id="Camada_2" data-name="Camada 2"><g id="Camada_1-2" data-name="Camada 1"><g id="Camada_2-2" data-name="Camada 2"><g id="OBJECTS"><path class="cls-1" d="M254.63,312.17c-30.09-14.28-46.65,16-67.76,10.08s-11-37-46.53-39.84S82.63,255.9,110.21,226s8.21-52.44-8.75-68.34-20.63-36.94-10-50.84C105,89.17,133.18,96.11,148,96.78c23.73,1.08,37.23-2.88,53.45-24.78,13.36-18,26-26.85,42.66-27,11.35-.13,22.74,5.71,31.9,21.39C298.66,105.1,324.47,99,348.49,88.82c15.83-6.73,30.15-7.25,39.81.76,7.51,6.23,10.71,18,4.65,37.39-13.87,44.28-25.63,59.69-3.08,82.18,27.81,27.75,35.47,54.08,8,62.87-24.14,7.71-39.41-12.91-69,4.34S310.63,338.76,254.63,312.17Z"/><path class="cls-2" d="M19.34,216.62s38.8-7.07,69.6-14.15,55.37-12.49,77.84-9.16,54.77,31,113.39,40.22,70.06-6.27,70.06-6.27S328.47,270,282,274.45s-10.7,27.29-62.32,22.13S77,265.6,77,265.6L0,280.35Z"/><path class="cls-3" d="M249.89,304.7A110.06,110.06,0,0,1,149,151h0A110.08,110.08,0,1,1,249.89,304.7Z"/><circle class="cls-4" cx="250.05" cy="194.62" r="101.96" transform="translate(-64.38 233.81) rotate(-45)"/><path class="cls-1" d="M285.26,102.13c1.39.69,3.18,1,3.82,2.43a2.32,2.32,0,0,1-1.29,3,1.74,1.74,0,0,0-.72.32,1.23,1.23,0,0,0,0,1.28c.63,1.59,1.81,3,2.14,4.66s-.85,3.85-2.54,3.55a6.77,6.77,0,0,1-1.49-.64,4.14,4.14,0,0,0-5.24,2c-.42.94-.46,2-.8,3a2.38,2.38,0,0,1-2.25,1.8,4.51,4.51,0,0,1-1.16-.43c-2.26-.93-4.89.16-6.68,1.82s-3,3.84-4.6,5.68c-1.07,1.25-2.88,2.4-4.25,1.49-1.07-.71-1.14-2.25-.88-3.51s.72-2.57.33-3.79c-.63-2-3.13-2.76-3.84-4.68-.62-1.65.34-3.49,1.57-4.76s2.76-2.27,3.7-3.77a6.36,6.36,0,0,0-2.53-8.63,6.09,6.09,0,0,0-1.08-.47,4.09,4.09,0,0,1-1.71-.64c-1-.83-.45-2.58.66-3.23a6,6,0,0,1,3.77-.37A6.41,6.41,0,0,0,264,98a4.24,4.24,0,0,0,2-3.76V93.8a102.24,102.24,0,0,1,17.66,4.47C282.33,99.81,284.05,101.53,285.26,102.13Z"/><path class="cls-1" d="M254.93,92.76h0c-2,2.93-8.49,2.47-10.9,5.49-2,2.47-.25,6.06,1.48,8.71l-3.59,1.62c-.16,2.64,3.87,3.77,4.29,6.38s-3,4.15-5.68,4-5.62-1-7.79.5a9.24,9.24,0,0,1,3.48-8.58,4.08,4.08,0,0,1-3-3.8c0-1.45.73-3.06-.09-4.26-1.12-1.63-3.77-.62-5,.94s-2,3.65-3.84,4.38a10,10,0,0,1-3.62.27,11.2,11.2,0,0,0-8.17,3.66,12.4,12.4,0,0,1-2.79,2.81c-1.16.66-2.61.7-3.75,1.39a3.91,3.91,0,0,0-1,5.44,3.24,3.24,0,0,0,.37.46c1.32-1.25,3.79-.5,4.48,1.17a4,4,0,0,1-1.71,4.72c1.27,2.08,4.3,2.54,6.51,1.5a10.39,10.39,0,0,0,4.67-5.44c.67-1.52,1.79-3.47,3.4-3l1.69,2.45c.86-1.59,3.2-3.25,4.06-1.66.28.51.18,1.15.42,1.68.68,1.47,2.84.81,4.44.52a5.24,5.24,0,0,1,5.2,2,4,4,0,0,1-.73,5.28c-.4.3-.9.53-1.11,1-.65,1.43,1.91,2.16,2.53,3.59s-1.43,3.06-3.06,2.68-2.79-1.76-4.06-2.86c-2.14-1.86-5.18-3-7.85-2.07a2.49,2.49,0,0,0-1.3.9c-.76,1.17.27,2.7,1.39,3.53s2.51,1.67,2.7,3.06c.29,2.16-2.55,3.34-4.72,3.16s-4.59-.9-6.37.36c-2.29,1.62-2.8,6-5.58,5.72-.7-.07-1.32-.47-2-.56-2.13-.27-3.37,2.27-4,4.32s-2,4.57-4.09,4.14c-1.39-.28-2.42-1.86-3.82-1.66-1,.14-1.63,1.16-2.11,2.06l-3.69,7-3.09-8c-.86,1.84-3.87,1-4.86-.72s-.89-3.94-1.63-5.82-3.2-3.45-4.72-2.12c-2.19,1.91,1.05,6.17-1,8.26-.71.72-1.81.86-2.7,1.33-3.15,1.63-2.66,6.21-1.71,9.63l2.43,8.71a2.65,2.65,0,0,0,.79,1.51c1.79,1.37,4.2-2.6,6.15-1.47,2.45,1.42-2.26,6,0,7.7.9.65,2.4.23,3.06,1.12.86,1.14-.8,2.69-.53,4.09.22,1.2,1.69,1.69,2.4,2.68s.62,2.37,1.38,3.3c2,2.45,6-1.28,9-.33,3.56,1.12,2.69,7.27,6,9,2.44,1.24,5.32-.8,8-.5,3.19.34,5.08,3.61,6.59,6.43s3.87,6,7.06,5.67c2.33-.22,5.1-2.15,6.65-.39a7.29,7.29,0,0,1,.94,2.09c1,2.29,3.58,3.3,5.71,4.58a11.21,11.21,0,0,1,5.29,6.52c.7,2.78-.33,6.09-2.84,7.49a4.46,4.46,0,0,0-1.77,1.23,5.12,5.12,0,0,0-.4,2.22,4.55,4.55,0,0,1-4.36,3.91c-1.07,0-2.35-.32-3.06.49a3.84,3.84,0,0,0-.53,2.22c-.25,2.22-2.08,3.87-3.78,5.31-3.82,3.22-6.71,8.06-11.44,9.65-6.24,2.11-5.64,3.06-5.53,5.49a11.85,11.85,0,0,0,4.29,8.75c1.1.88,2.55,2.07,2,3.36a2.31,2.31,0,0,1-1.94,1.16,6,6,0,0,1-5.71-2.84c-1.64-2.85-.93-7.08-3.62-9-1.51-1-3.79-1-4.77-2.6a5,5,0,0,1-.47-2.83q.31-9.85.64-19.72a10,10,0,0,0-.66-4.87c-1.28-2.56-4.37-3.51-6.72-5.14a12.17,12.17,0,0,1-5-11.54c.27-1.79.91-3.76-.06-5.29-.79-1.24-2.48-1.83-2.92-3.23s.52-2.68,1.61-3.53a20.27,20.27,0,0,0,3.28-2.47c2.23-2.64-.21-7.52-3.67-7.32a4.6,4.6,0,0,1-1.57,0c-1.75-.48-1.37-3-1.91-4.77-1.08-3.46-6.74-4.42-6.8-8,0-1.54,1-3.37-.11-4.44s-2.95,0-4.41-.42-2.1-2.22-2.12-3.77.3-3.16-.27-4.6c-.62-1.6-2.19-2.59-3.29-3.9-1.94-2.29-2.41-5.51-2.14-8.5s1.18-5.89,1.68-8.85a46.36,46.36,0,0,0,.18-12.34,102.1,102.1,0,0,1,91.14-47.45h0Z"/><path class="cls-1" d="M254.93,92.77c-1.1,4.11-8.24,2.16-10.9,5.49C246.44,95.24,252.9,95.7,254.93,92.77Z"/><path class="cls-1" d="M344.76,224.53c-.37-.54-.92-.94-1.3-1.48-1.3-1.85-.15-4.37.89-6.39s1.85-4.79.15-6.29c-1.53-1.34-4.14-.45-5.18,1.3s-.91,3.93-.54,5.93,1,4,.73,6c-.53,4.52-4.95,7.64-6.19,12-.63,2.23-.39,4.6-.62,6.9s-1.15,4.78-3.22,5.8a22.71,22.71,0,0,1-3.22.92,8.92,8.92,0,0,0-5.52,6.49,9.47,9.47,0,0,1-1.26,3.76c-1.28,1.63-3.67,1.73-5.53,2.64-3.5,1.73-5.47,6.52-9.38,6.62a10.29,10.29,0,0,0-4.51.91c-8.78,4.22-7.74,1.83-12.09,1.51l-4.36-.32c-.83-1.2.08-2.89,1.29-3.72s2.68-1.24,3.72-2.27c2.34-2.31,1.75-7,4.77-8.32,2.05-.87,4.93.4,6.36-1.3,1.68-2-.91-5.49.74-7.5,1.11-1.35,3.38-1,4.7-2.15,2.49-2.17-.79-6.37.27-9.5a8.34,8.34,0,0,0,.88-2.48c0-2.09-3.07-2.65-4.94-1.69s-3.46,2.69-5.56,2.78c-4.48.2-5.94-6.75-10.25-8-2.83-.85-6.84.67-8.22-1.94a4,4,0,0,1-.35-2.13,10.48,10.48,0,0,1,5-8.33c1.17-.69,2.67-1.43,2.73-2.79a4.68,4.68,0,0,0-.35-1.52,7.1,7.1,0,0,1,3.13-8c2.68-1.55,6.87-1.88,7.35-4.93.21-1.27-.42-2.64.09-3.82a3.84,3.84,0,0,1,2.78-1.86c3.41-.83,7-.41,10.41-1.37,2.1-.59,4-1.7,6.14-2.26s4.62-.43,6.15,1.12c-1,.9.81,2.32,2.11,2s2.78-1.09,3.83-.27.53,2.66.24,4.08c-.86,4.24,3.13,8.73,7.44,8.37a5,5,0,0,1,.24-4c1.79.8,2.92,2.57,4.44,3.81s4.08,1.78,5.24.2c1.65-2.23-1.37-5.83.35-8a3.46,3.46,0,0,1-4.76-3c0-.75.28-1.48.22-2.23s-.64-1.56-1.38-1.44c-1.18.18-1.13,2.24-2.27,2.59-2.46-1.36-.35-5.47-1.81-7.87-.45-.75-1.22-1.25-1.73-2-.76-1-.9-2.38-1.38-3.57s-1.58-2.35-2.83-2.09c-1.52.31-1.89,2.38-1.4,3.85s1.47,2.83,1.45,4.38-2,3.07-3.05,2a2.7,2.7,0,0,1-.59-1.09l-1-2.67c-.7-1.93-1.46-4-3.07-5.22s-4.32-1.35-5.43.37c-.78,1.23-.6,3-1.76,3.93s-2.94.16-4.34.66c-1.24.44-2,1.74-3.11,2.39a3.52,3.52,0,0,1-4.68-1.67,3.75,3.75,0,0,1-.32-1.19c0-1.45.91-2.9.48-4.3a7.29,7.29,0,0,0-1.55-2.18c-1-1.23-1.41-3.14-.38-4.34s3.08-1,4.55-.29,2.75,1.89,4.34,2.28,3.69-.45,3.75-2.09c.07-1.95-2.69-3.32-2.24-5.22.28-1.17,1.68-1.69,2.89-1.69a15.48,15.48,0,0,0,3.6,0c3-.73,3.66-4.64,3.47-7.7a2.56,2.56,0,0,1,.36-1.85,1.74,1.74,0,0,1,2.41.15,6.08,6.08,0,0,1,1.22,2.4c.85,2.41,2.48,4.89,5,5.32s5.22-2.71,3.61-4.69a3.32,3.32,0,0,1-.68-.94c-.42-1.42,2.3-1.75,2.7-3.17.45-1.61-2.12-2.13-3.24-3.37-1.89-2.1.6-6.42-1.81-7.88-1.38-.83-3.27.34-3.77,1.87a8.31,8.31,0,0,0,.37,4.74,2.13,2.13,0,0,1,.07,1.45c-.47,1.08-2.14.68-3-.13s-1.65-2-2.82-2-2.15,1.28-3.33,1.11a2.1,2.1,0,0,1-1.56-2.05c-.31-4.63,7.91-6.63,7.14-11.21-.41-2.46-3.43-4.86-1.91-6.83,1.13-1.46,3.58-.58,4.67.91s1.57,3.4,2.92,4.65a4.74,4.74,0,0,0,4.44.94A102.34,102.34,0,0,1,350,174.76L349,175c-.86.24-1.94.8-1.76,1.68.07.32.31.59.36.91A1.72,1.72,0,0,1,347,179c-.89,1-2.23,2-3.37,1.33s-1.25-2.12-2.36-2.32a1.61,1.61,0,0,0-1.69,1.36,4.66,4.66,0,0,0,.32,2.36,1.46,1.46,0,0,0,.27.56c.27.29.71.32,1.07.47,1.5.63,1.63,3.3,3.25,3.39a3.25,3.25,0,0,0,2.07-1.25c.59-.58,1.55-1.09,2.22-.59s.54,1.73,1.27,2.2a1.61,1.61,0,0,0,1.52-.08,101.48,101.48,0,0,1-7.41,47,7,7,0,0,1,.28-3.51C345.13,228.2,345.83,226.1,344.76,224.53Z"/><path class="cls-1" d="M313,155.18c2.05,2.1,4.61,1.73,2.77,3.19s-2.76-.42-5.44,1.79-4.6,1-2.63-1.91S311,153.09,313,155.18Z"/><path class="cls-1" d="M306.65,144.48s3.73.58,3.68,2.89.77,3,.77,3c.47,1.33-1.39,4.24-2.55,1.32s-.39-3.71-3.19-5.44S306.65,144.48,306.65,144.48Z"/><path class="cls-1" d="M304.38,150.33c1.17,1.72,2.86.8,2.36,2.75s0,1.64-2.46,2.31-3.17.53-2.5-2.64S303.22,148.62,304.38,150.33Z"/><path class="cls-1" d="M289.93,126c1.61,2.68,3.26,2.87,4.88,2.71s1.6-.09,1.81,1.21c.5,3-1.44,4.13-5.21,2.07s-.92-3.68-3.73-5.58S288.32,123.26,289.93,126Z"/><path class="cls-1" d="M206.35,188.75c-5.2,1.17-2.82-3.81-6.37-3.22s-2.71-4.35-.35-3.56C203.53,183.26,211.56,187.59,206.35,188.75Z"/><path class="cls-1" d="M191.91,180.52c-2-3-2.73-5.41-5.65-5.73s-2.09-2,.76-1.21,5.38,4.44,7.66,6.25C196.58,181.34,193.91,183.5,191.91,180.52Z"/><path class="cls-1" d="M180.2,172.76c-2-1.68,0-3.29,1.4-.81C182.67,173.86,182.18,174.44,180.2,172.76Z"/><path class="cls-1" d="M241.32,148.08c-4.85-1-2.83-3.81-5.58-2.88s-4.55-.08-1.81-2.08,3.65-2.19,6.27-1.17C244.81,143.73,246.17,149.11,241.32,148.08Z"/><path class="cls-5" d="M218.61,238.69C265.58,259,329.78,229.8,352,197.8a102,102,0,1,1-196.65-41C147,198.77,177.77,221.06,218.61,238.69Z"/><path class="cls-4" d="M5.42,293.53s-4.51,2,56.22-4.21c31.09-3.2,38.56-2,54.08,3.2,27.24,9.16,65,29.86,80.56,38s23.55,9.4,31.78,6.48c11.79-4.17,18.73-6.38,29.66-9.61,13.78-4.08,33.19-7.38,44.74-9.41s15.15-4.84,19.52-9.21,22.63-22.95,26.53-29,14.52-21.07,20-29.35,15.45-20.6,18.57-25-.93-10.09-3.74-11.71a13.77,13.77,0,0,0-8.75-1.87s-4.11-2.61-10.77-.78c-8.62,2.36-13.64,8.2-17,17.38-7.82,1.1-10.15,3.22-16.24,9.62s-14.38,16-14.38,16-7.2,1.56-17.2,7.18a136,136,0,0,1-16.08,8s-17.33-4.84-33.87-.93c-8.9-6.72-30-15.74-41.6-16.35-6.09-5.15-20.22-14.41-38.8-27.52S136.84,200.87,118,203.05s-95.58,20-95.58,20Z"/><path class="cls-6" d="M370.8,243.15c1.07-2.5,2.16-4.92,3.16-6.86,3.8-7.44,9.93-14.16,7.12-18.52l-.23-.34a143.9,143.9,0,0,0-11.13,18.49C368.11,239.59,369.34,241.38,370.8,243.15Z"/><path class="cls-2" d="M309.73,307c-.39.31,1.36,3.1,3.91,6.22.33.41.66.8,1,1.17.56-.28,1.08-.57,1.58-.87-.36-.47-.74-.95-1.15-1.45C312.5,308.92,310.12,306.65,309.73,307Z"/><path class="cls-2" d="M314.5,305.72c-.32.18.55,2.43,1.95,5,.36.68.73,1.31,1.07,1.87.34-.24.68-.49,1-.74-.26-.55-.56-1.15-.89-1.76C316.23,307.52,314.83,305.55,314.5,305.72Z"/><path class="cls-2" d="M306.74,310.67c-.24.29,1.43,2,3.72,3.91.45.37.88.7,1.3,1,.46-.17.89-.34,1.31-.52-.52-.48-1.11-1-1.76-1.53C309,311.67,307,310.39,306.74,310.67Z"/><path class="cls-2" d="M344.4,273.46c-.33.37,1.74,2.77,4.66,5.41.3-.48.64-1,1-1.54C347.22,274.82,344.72,273.1,344.4,273.46Z"/><path class="cls-2" d="M348.93,271.5c-.27.21.74,2,2.29,4.12l.78-1.15C350.49,272.59,349.19,271.31,348.93,271.5Z"/><path class="cls-2" d="M342,277.58c-.19.32,1.72,1.8,4.27,3.29.34.2.67.39,1,.56.28-.37.55-.72.78-1.05-.35-.22-.71-.44-1.09-.66C344.42,278.22,342.2,277.27,342,277.58Z"/><path class="cls-6" d="M360.61,240a7.2,7.2,0,0,0-1.22-6.29c-2.95,3-9.81,13.18-11.3,16.07a4.53,4.53,0,0,0,1,5.6c.73-1,1.44-2,2.12-2.88C354.76,247.92,359.73,242.36,360.61,240Z"/><path class="cls-2" d="M360.61,240c-.88,2.41-5.85,8-9.36,12.5s-7.67,11.32-10.74,15.05-7.23,6.94-13.81,11.91-18.34,15-23.46,18.93-9.28,4.31-18.05,5.92-20.24,3.29-31.05,4.82-16.69,2.16-17.3,4.62,2.66,3.76,14.15,1.74c14-2.47,29.38-7.38,39.61-9.06s12.79-5.85,16.95-8.55,26.9-19.95,31.21-23.31,7.89-10.09,12.27-15.86,11.48-14,15.06-19.44-2-10.65-7.67-13.15a30,30,0,0,0-9.46-2.63,41.65,41.65,0,0,0-2.16,5c4.44.26,7.24.66,10.15,2.78C360.46,233.74,361.48,237.54,360.61,240Z"/><path class="cls-2" d="M384.09,218.56a19.31,19.31,0,0,0-3.47-6.11,13,13,0,0,0-6-.65l-.22-.13c2.87,1.24,4.59,2.78,6.72,6.1,2.81,4.36-3.32,11.08-7.12,18.52-2.32,4.53-5.16,11.58-7,16.4.56-.82,1.08-1.61,1.57-2.34,1.84-2.79,4.2-6,6.64-9.3C379.35,229.38,386.78,227.19,384.09,218.56Z"/><path class="cls-7" d="M349.15,256.48c-2-1.52-3.3-3.93-1.14-7.73s8.88-12.05,8.88-12.05-6.79,9.45-8.18,12.68a4.69,4.69,0,0,0,1.2,5.39Z"/><path class="cls-7" d="M371.47,245.13c-3.43-1.9-3.93-5.58-2-9.89s10.08-16.1,10.08-16.1-7.42,12.49-9.25,16.36,1.83,7.29,1.83,7.29"/><path class="cls-2" d="M299.65,299.44c-3.14-4.79-6.16-8.35-6.76-8s1.46,4.59,4.59,9.38c.12.18.23.36.35.53a19.47,19.47,0,0,0,2.37-1.09Z"/><path class="cls-2" d="M303.87,297.85c-.09-.24-.19-.48-.29-.73-1.59-3.89-3.27-6.88-3.76-6.68s.41,3.51,2,7.4c.16.4.33.79.49,1.17.31-.21.62-.43.93-.67Z"/><path class="cls-2" d="M294.14,301c-3-3-5.65-5.1-6-4.73s1.72,3.09,4.67,6.07l.41.41c.74-.17,1.44-.34,2.12-.53Z"/><path class="cls-2" d="M338.38,265.78c-3.36-2.91-6.32-4.87-6.59-4.38s2.24,3.25,5.61,6.16c.6.52,1.2,1,1.76,1.47.44-.47.86-.94,1.25-1.42C339.79,267,339.11,266.41,338.38,265.78Z"/><path class="cls-2" d="M340.24,262.75c-2.12-2.64-4.05-4.54-4.3-4.24s1.26,2.7,3.38,5.34c.75.94,1.48,1.79,2.12,2.47l.74-1C341.63,264.56,341,263.68,340.24,262.75Z"/><path class="cls-2" d="M335.29,268.66c-2.74-1.52-5.07-2.42-5.2-2s2,2,4.72,3.48c.75.42,1.47.79,2.12,1.1a11.8,11.8,0,0,0,1-1C337.19,269.77,336.29,269.21,335.29,268.66Z"/><path class="cls-2" d="M201.92,264.22c19.51-8.45,43.25,1,45.2,12.68,5.29-7,27.23-10.06,34.9-2.45,12.9-10.55,28.31-19.22,36.31-17.06,2-6.9,10.41-17,16.41-23.57-1.24,1.14-2.58,2.52-4.18,4.2-6.09,6.4-14.36,16.08-14.36,16.08s-7.2,1.56-17.2,7.18a136,136,0,0,1-16.08,8s-17.33-4.84-33.87-.93c-8.9-6.72-30-15.74-41.6-16.35-6.09-5.15-20.22-14.41-38.8-27.52-6.47-4.57-12.3-8.81-18-12.32C174.6,229.36,201.12,254.64,201.92,264.22Z"/><path class="cls-2" d="M48.88,291q6.33-1,12.76-1.64c31.09-3.2,38.56-2,54.08,3.2,19.73,6.63,45,19.32,63.3,28.89-21.35-20.15-52-40.88-64.49-42.95C104.89,276.89,81.4,281.78,48.88,291Z"/><polygon class="cls-2" points="246.03 269.18 243.76 293.53 249.14 271.73 246.03 269.18"/><polygon class="cls-2" points="280.14 270.88 282.97 286.17 282.69 270.6 280.14 270.88"/><polygon class="cls-2" points="316.38 256.3 321.75 262.39 317.79 255.31 316.38 256.3"/><polygon class="cls-2" points="203.85 257.15 195.78 275.55 206.4 259.41 203.85 257.15"/><ellipse class="cls-6" cx="154.43" cy="233.83" rx="10.84" ry="34.88" transform="translate(-124.01 202.22) rotate(-50.08)"/><ellipse class="cls-6" cx="223.34" cy="272.65" rx="6.38" ry="17.43" transform="matrix(0.16, -0.99, 0.99, 0.16, -82.4, 447.98)"/><path class="cls-6" d="M280,277.87c.11,2.86-6.13,5.42-13.94,5.72s-14.23-1.78-14.34-4.64,6.13-5.42,13.94-5.72S279.93,275,280,277.87Z"/><path class="cls-6" d="M316.73,262.16c1.12,2.25-5.33,7.7-14.38,12.16s-17.3,6.26-18.41,4,5.33-7.7,14.39-12.17S315.62,259.91,316.73,262.16Z"/><path class="cls-4" d="M185.64,49.2c2.09-1.1,4.92-1.56,6.26-.3s.68,1.68.68,1.68a3.08,3.08,0,0,0,.44,1.9c.55.64,1.1.81.62,1.19,0,1.61.36,3-.56,3.24-.5.13-1,.26-1.36.37s-.14,1-.14,1l-2.42.67s-.3-1.78-.93-1.73c-2.25.18-3.46-2.59-3.46-2.59s-1.46,0-1.22,2.29-.16,4.9-3.52,4.54c1.47-1.27,3.38-3.35,2.07-7S181.42,48.47,185.64,49.2Z"/><path class="cls-4" d="M189.12,57.89l-2.87,3.66s-3.26,4.87-3.75,6A47,47,0,0,0,181.38,74s-.6,2.34.27,2.42a1,1,0,1,0,2-.32,4,4,0,0,0-.64-2.55l1.63-5.31,4.44-5.62s.14,5.83.53,9.26.84,8.63.49,10.61c4.48,2.73,11.55.16,14.16-3-1.81-5.26-5.13-10.77-7-15a21.49,21.49,0,0,0-5.51-7.14Z"/><path class="cls-4" d="M192.57,58.4c.83.05,9.12-.57,9.94-.8.66-.19,6.05-2.58,6.05-2.58s1.68.45,1.18,1.84S203.66,60,203.66,60l-9,1.8Z"/><path class="cls-4" d="M193.66,82.93l.12,3.09s-5.48,8.18-6.4,9.38-1.28,1.7-1,2.31,2.25,3.89,2.5,4.3,4.82-1.21,4.82-1.21a1.93,1.93,0,0,0-2.21-.67c-.51-1-1.23-2.36-1.23-2.36s5.86-8.1,7-10.08a7.38,7.38,0,0,0,.41-4.68Z"/><path class="cls-4" d="M199.5,81.93s6.38,12.43,7.5,14.37c.48,1,2.1.65,2.86-.17A27.25,27.25,0,0,0,213,90.89c.14-.63-2.53,1.37-4.39,2.31-1.91-2.86-6.9-12.6-6.9-12.6Z"/><path class="cls-4" d="M232.11,12.45S230.93,9,230.23,7.27s-.52-2.81,1.48-3.76,6.19-2.17,8-3.12,2.9-.21,1.69,2.67c.77,1.38,1.79,3,1.79,3a6.12,6.12,0,0,0,2.47.75c.66.6-1.43,1.48-1.43,1.48a23.21,23.21,0,0,0,1,4.59c.62,1.47-5.66,3.17-6.88,3.49-.72.19-.41,1.16-.41,1.16a8.93,8.93,0,0,1,1.18,2.35c.22,1,.23,9,.14,10.85s.31,13.12.31,13.12l-1.58.3s6,13.53,7.73,19.15,7.52,20.43,7.52,20.43,4.13-3.54,7-5.48c2.32-1.59,1.76-.53,1.27.48s-6.7,7.42-8.4,9.1-3,0-3.71-1.34S238.4,66,238.4,66l-6.2-11s-3.73,12-4.38,13.38S211.13,86.2,211.13,86.2l-1.22.59.07,5.52s4.21.52,4.8,1.74l-6.76.31-3.33-8.76L220.2,67.48l4.38-21.31s-.45-.15-1.09-.39c.31-3,3.46-16.1,3.46-16.1l-6.83,6.55S210.19,53,209.71,54.15s1.21,2.19-1.27,2.88-3.82-1.4-2.24-3.7,7.35-16.63,8-17.64a36.55,36.55,0,0,1,2.26-3.13c.76-.93,10-12.39,11-13.68a11.61,11.61,0,0,1,4.12-3.3A5.05,5.05,0,0,0,232.11,12.45Z"/><path class="cls-4" d="M238.25,18.84s7,7.56,8.29,9.15,1,6.75-1.55,4.39-7-7.46-7-7.46Z"/><path class="cls-4" d="M243.61,27s3.51-4.23,3.61-7.38c.06-1.8,2.4-1.69,2.34-.33-.1,2.11-1.57,11.06-2.63,12.76S243.61,27,243.61,27Z"/><path class="cls-4" d="M255.08,19.94s-21.68-3.75-31.87-4.65c-10.75-.95-13.63-.94-13.63-.94"/><path class="cls-4" d="M247.1,17.32c-1.67.89-1.66,1.64.34,2s2.85-.27,2.09-1.36S247.1,17.32,247.1,17.32Z"/><path class="cls-4" d="M249.22,17.72A1.13,1.13,0,0,1,250,19.1a.88.88,0,0,1-.05.15,1.49,1.49,0,0,1-1,.78Z"/><path class="cls-4" d="M211.92,14.37c-4.61,3.4-5.78,7.9-1.19,8.36s4.92-5.7,2.57-8.36c1.67-.26,1.84-3.1-.51-.64C211.85,10.22,210.91,12.19,211.92,14.37Z"/><path class="cls-4" d="M276.77,8.69c3.49-5.44,7.63-6,11-4.71s3.69,3.18,3.06,3.84c1,.89,0,2.09-.69,3.26a2.64,2.64,0,0,0,.28,2.69,1,1,0,0,1-1.06.2,22.92,22.92,0,0,0-.92,2.38c-.27.91-.51,1.15-1.6,1.21H285l-.2,1.75A19.33,19.33,0,0,0,287.35,21a5.61,5.61,0,0,1,2.43,2.53,22,22,0,0,1-1.39,3.87s-.19,8.42-.17,10.47,8.46,17.64,10.12,21.41c-5.29,2-8.92,7.86-14,12.37s-13.09,4.59-17.91-.2c4.18-7,8.2-25.31,9.07-32.28a78.35,78.35,0,0,0,.32-15.91c-1.68-.36-2.35-1.19-2.16-3.59S275.39,10.85,276.77,8.69Z"/><path class="cls-4" d="M277,22l-6.4,8.53a1.77,1.77,0,0,0,0,2.06l5.48,7.93Z"/><path class="cls-4" d="M271,72l-5.15,13.77,7.74,2.56,3.54.14s-.4-1.94-3.2-2.39c-1.7-1.65-2.56-2.46-2.56-2.46l3-9.8Z"/><path class="cls-4" d="M296.12,66.92s1.78,9,2.3,15.26c4.21,0,6.38,1.36,7.61,2.6-3.95,1-12.81,1-12.81,1l-1.43-16.25-3.57-6.76,5-2.83Z"/><path class="cls-4" d="M294.46,16.74s-.89,1.25-1.16,1.51a9.18,9.18,0,0,1-1.57.78l.23,1.33-1.19,1.86c-.31.5,1.5,1.75,1.5,1.75l-.12,1.3,2.12.76s3.68-1.55,4.58-2,4.22-3.48,2.3-6-5.54-2.93-6.21-2.63S294.46,16.74,294.46,16.74Z"/><path class="cls-4" d="M295.52,23.07c.55.78,1.53,7.08,1.53,7.08L295.23,38s-.27,3.79-5.45,3.12-3.87-10.28-3.87-10.28l2.54-6.57Z"/><path class="cls-4" d="M297.31,26.53c1.3,1.22,2.23,3-.26,3.62s-2.11-2.83-2.11-2.83Z"/></g></g></g></g></svg>